<svg width="42" viewBox="0 0 420 505" fill="none" xmlns="http://www.w3.org/2000/svg">
<path d="M381.92 137.64C400.397 66.5191 357.838 25.0801 330.959 12.2001C275.518 -12.4409 230.159 8.84072 209.999 21.161C190.397 8.84102 144.479 -12.441 89.039 12.2001C62.719 24.5201 19.598 66.5201 38.078 137.64C18.476 154.441 -16.242 199.242 10.078 294.44C11.1991 298.921 21.277 335.319 62.719 393.561C64.9573 397.483 82.321 425.483 104.16 460.76C107.519 466.92 127.68 499.401 179.762 504.44H181.442H239.122H240.801C292.879 499.401 313.039 466.92 316.403 460.76C337.684 425.479 355.044 397.479 357.844 393.561C399.844 335.323 409.364 298.92 410.485 294.44C436.239 199.237 401.521 154.44 381.923 137.64H381.92ZM377.439 286.04V286.599C377.439 287.157 369.041 319.638 329.279 374.521C329.279 375.079 328.721 375.079 328.721 375.642C328.721 376.2 309.682 405.88 286.721 443.962C286.721 444.52 286.162 444.52 286.162 445.083C286.162 445.083 274.4 466.923 237.443 471.403L181.998 471.399C145.6 467.477 133.838 446.2 133.279 445.079C133.279 444.52 132.721 444.52 132.721 443.958C109.76 405.88 91.2797 375.638 90.7207 375.638C90.7207 375.079 90.1621 375.079 90.1621 374.517C50.4001 319.076 42.5601 286.595 42.0021 286.595V286.036C15.1231 187.477 62.7211 160.036 64.4001 159.476C71.6813 155.554 75.5991 147.156 72.7985 139.316C62.7205 110.195 64.4001 84.9962 78.4001 65.3942C88.4781 50.2732 102.478 43.5542 102.478 43.5542C155.677 20.0342 196.556 53.6322 198.24 55.3162C201.041 58.117 204.959 59.2381 209.439 59.2381H209.998C213.92 59.2381 217.838 57.5584 221.197 55.3162C221.755 54.7576 263.197 20.0352 316.959 43.5542C319.197 44.6753 370.721 69.8742 346.639 139.874C343.838 147.714 347.76 156.675 355.037 160.034C355.6 159.48 404.877 185.8 377.439 286.034L377.439 286.04ZM259.839 268.681C259.281 268.123 239.121 247.962 210.559 247.962H210C181.441 247.962 160.719 268.681 160.719 268.681C156.238 273.162 149.52 273.162 145.039 268.681C140.558 264.201 140.558 257.482 145.039 253.001C146.16 251.88 171.918 225.56 210.559 225.56H211.117C249.758 225.56 275.515 251.88 276.637 253.001C281.118 257.482 280.559 264.763 276.079 268.681C273.841 270.919 271.04 272.041 268.239 272.041C264.88 272.041 262.079 270.923 259.841 268.681H259.839ZM296.8 211.56C301.281 216.041 300.722 223.322 296.242 227.24C291.761 231.721 284.48 231.162 280.562 226.682C253.121 198.123 211.121 198.682 210.562 198.682H209.441C208.882 198.682 166.882 197.56 139.441 226.682C137.202 228.92 134.402 230.041 131.601 230.041C128.8 230.041 125.999 228.92 123.761 226.682C119.281 222.201 119.281 215.483 123.203 211.002C157.363 174.604 207.762 176.283 210.004 176.283H210.562C212.238 176.283 262.078 175.161 296.8 211.56L296.8 211.56ZM201.602 387.4C201.602 393.56 196.562 398.599 190.402 398.599C184.243 398.599 179.203 393.56 179.203 387.4C179.203 377.881 171.922 370.599 162.402 370.599C152.883 370.599 145.602 377.88 145.602 387.4C145.602 393.56 140.562 398.599 134.402 398.599C128.243 398.599 123.203 393.56 123.203 387.4C123.203 365.56 140.562 348.201 162.402 348.201C184.238 348.201 201.602 365.56 201.602 387.4ZM173.602 385.162V387.4V389.638C173.602 390.197 173.043 391.318 173.043 391.877C173.043 392.435 172.484 392.998 171.922 393.556C171.363 394.115 170.801 394.678 170.801 395.236C169.68 396.357 168.562 396.916 167.441 397.474C165.199 398.041 164.078 398.603 162.398 398.603C159.598 398.603 156.797 397.482 154.559 395.244C154 394.685 153.437 394.123 153.437 393.564C152.879 393.006 152.879 392.443 152.316 391.885C151.758 391.326 151.758 390.763 151.758 389.646V387.408V385.17C151.758 384.611 152.316 383.49 152.316 382.931C152.316 382.373 152.875 381.81 153.437 381.252C153.996 380.693 153.996 380.131 154.559 379.572C157.359 376.771 160.719 375.65 164.637 376.771C165.195 376.771 165.758 377.33 166.875 377.33C167.433 377.888 167.996 377.888 168.555 378.451C169.113 379.009 169.676 379.572 170.234 379.572C170.793 380.13 171.355 380.693 171.355 381.252C171.914 381.81 171.914 382.373 172.476 382.931C173.039 383.482 173.039 384.603 173.601 385.162L173.602 385.162ZM296.801 387.4C296.801 393.56 291.762 398.599 285.602 398.599C279.442 398.599 274.403 393.56 274.403 387.4C274.403 377.881 267.122 370.599 257.602 370.599C248.083 370.599 240.802 377.88 240.802 387.4C240.802 393.56 235.762 398.599 229.603 398.599C223.442 398.599 218.404 393.56 218.404 387.4C218.404 365.56 235.762 348.201 257.602 348.201C279.442 348.201 296.801 365.56 296.801 387.4ZM268.801 385.162V387.4V389.638C268.801 390.197 268.243 391.318 268.243 391.877C268.243 392.435 267.684 392.998 267.122 393.556C266.563 394.115 266.001 394.678 266.001 395.236C265.442 395.795 264.88 396.357 264.321 396.357C263.762 396.916 263.2 396.916 262.641 397.478C262.083 397.478 261.52 398.037 260.403 398.037H258.165C255.364 398.037 252.563 396.916 250.325 394.678C249.766 394.119 249.204 393.556 248.645 392.998C248.087 392.439 248.087 391.877 247.524 391.318C247.524 390.76 246.966 390.197 246.966 389.08V386.842V384.603C246.966 384.045 247.524 382.923 247.524 382.365C248.083 381.806 248.083 381.244 248.645 380.685C249.204 380.127 249.766 379.564 249.766 379.006C250.325 378.447 250.887 377.884 251.446 377.884C252.005 377.326 252.567 377.326 253.126 376.763C253.684 376.763 254.247 376.205 255.364 376.205C257.044 376.205 258.165 375.646 259.844 376.205C260.403 376.205 260.966 376.763 262.083 376.763C262.641 377.322 263.204 377.322 263.762 377.884C264.321 378.443 264.884 379.006 265.442 379.006C266.001 379.564 266.563 380.127 266.563 380.685C267.122 381.244 267.122 381.806 267.684 382.365C268.239 383.482 268.239 384.603 268.802 385.162L268.801 385.162Z" fill="black"/>
<circle cx="290" cy="110" r="25" fill="black"/>
<circle cx="130" cy="110" r="25" fill="black"/>
</svg>
