
<svg width="42" viewBox="0 0 420 658" version="1.1" xmlns="http://www.w3.org/2000/svg" xmlns:xlink="http://www.w3.org/1999/xlink">
    <title>Open MouthOpen Mouth</title>
    <g id="Page-1" stroke="none" stroke-width="1" fill="none" fill-rule="evenodd">
        <g id="Group" transform="translate(-0.000000, -0.000000)" fill="#000000">
            <g transform="translate(-0.000000, 0.000000)" fill-rule="nonzero">
                <g>
                    <path d="M37.4909167,136.806518 C17.8889167,153.607518 -16.8290833,198.408518 9.49091667,293.606518 C10.6120167,298.087518 20.6899167,334.485518 62.1319167,392.727518 C64.3702167,396.649518 81.7339167,424.649518 103.572917,459.926518 C106.931917,466.086518 127.092917,498.567518 179.174917,503.606518 L180.854917,503.606518 L238.534917,503.606518 L240.213917,503.606518 C292.291917,498.567518 312.451917,466.086518 315.815917,459.926518 C337.096917,424.645518 354.456917,396.645518 357.256917,392.727518 C399.256917,334.489518 408.776917,298.086518 409.897917,293.606518 C435.651917,198.403518 400.933917,153.606518 381.335917,136.806518 L381.332917,136.806518 M346.051917,139.040518 C343.250917,146.880518 347.172917,155.841518 354.449917,159.200518 C355.012917,158.646518 404.289917,184.966518 376.851917,285.200518 L376.851917,285.765518 C376.851917,286.323518 368.453917,318.804518 328.691917,373.687518 C328.691917,374.245518 328.133917,374.245518 328.133917,374.808518 C328.133917,375.366518 309.094917,405.046518 286.133917,443.128518 C286.133917,443.686518 285.574917,443.686518 285.574917,444.249518 C285.574917,444.249518 273.812917,466.089518 236.855917,470.569518 L181.410917,470.569518 C145.012917,466.643518 133.250917,445.366518 132.691917,444.245518 C132.691917,443.686518 132.133917,443.686518 132.133917,443.124518 C109.172917,405.046518 90.6926167,374.804518 90.1336167,374.804518 C90.1336167,374.245518 89.5750167,374.245518 89.5750167,373.683518 C49.8130167,318.242518 41.9730167,285.761518 41.4150167,285.761518 L41.4150167,285.202518 C14.5360167,186.643518 62.1340167,159.202518 63.8130167,158.642518 C71.0942167,154.720518 75.0120167,146.322518 72.2114167,138.482518" id="Lower-Jaw" transform="translate(209.528552, 251.803259) rotate(180.000000) translate(-209.528552, -251.803259) "></path>
                    <path d="M60.5652364,347.330947 C43.5386118,361.542888 13.3819771,399.439987 36.2439687,479.967833 C37.2177749,483.758304 45.9716072,514.547317 81.9688205,563.814138 C83.9130453,567.131752 98.9954451,590.81691 117.965165,620.657672 C120.882849,625.868406 138.39503,653.344036 183.634325,657.606518 L185.093601,657.606518 L235.195413,657.606518 L236.65382,657.606518 C281.889641,653.344036 299.400953,625.868406 302.32298,620.657672 C320.808012,590.813526 335.887198,567.128368 338.319325,563.814138 C374.801226,514.550701 383.070457,483.757458 384.044177,479.967833 C406.414531,399.435757 376.257896,361.542042 359.234746,347.330947 M328.586475,349.220684 C326.153479,355.852529 329.560194,363.432625 335.881118,366.273998 C336.370149,365.805371 379.172974,388.069419 355.339869,472.85721 L355.339869,473.335142 C355.339869,473.807154 348.045226,501.282783 313.507289,547.708231 C313.507289,548.180242 313.022601,548.180242 313.022601,548.656483 C313.022601,549.128494 296.485007,574.234762 276.540699,606.448269 C276.540699,606.92028 276.055142,606.92028 276.055142,607.396521 C276.055142,607.396521 265.838473,625.870944 233.737005,629.660569 L185.576552,629.660569 C153.960641,626.339572 143.743972,608.341389 143.258415,607.393137 C143.258415,606.92028 142.773727,606.92028 142.773727,606.444885 C122.829419,574.234762 106.777122,548.653099 106.291565,548.653099 C106.291565,548.180242 105.806356,548.180242 105.806356,547.704847 C71.2684183,500.807388 64.4584633,473.331759 63.9737752,473.331759 L63.9737752,472.858902 C40.6262269,389.487991 81.9706446,366.27569 83.4290521,365.801987 C89.753624,362.484373 93.1566905,355.380517 90.7240426,348.748673" id="Shape"></path>
                </g>
            </g>
            <rect id="Rectangle" stroke="#000000" x="89.5" y="347.5" width="246" height="18"></rect>
            <path d="M210.5,178.239502 C225.051582,178.239502 246.839428,182.324569 275.864728,190.481354 C280.283861,191.587158 282.953522,192.619537 283.79516,193.680492 C284.030447,193.97709 284.318038,194.296527 284.620254,194.63158 C285.525025,195.634658 286.70209,196.795428 286.507402,197.914285 C286.31536,199.017939 286.394403,199.809399 286.457274,200.421877 C286.479417,200.637588 286.5,200.827692 286.5,201 C286.5,202.188166 284.271354,204.295561 282.680747,205.615191 C281.819868,206.329411 279.589312,207.2705 276.005861,208.467508 C248.537352,198.061616 227.367832,192.869751 212.5,192.869751 C197.631147,192.869751 175.125736,198.064891 144.985817,208.475241 C140.971227,207.308395 138.648932,206.519254 138.043392,206.070836 C135.620313,204.276485 134.5,202.55162 134.5,201 C134.5,199.634161 135.614602,196.421384 138.113588,193.70851 C139.033801,192.709536 141.393673,191.65144 145.151215,190.476874 C174.168551,182.323073 195.951082,178.239502 210.5,178.239502 Z" id="Rectangle" stroke="#000000"></path>
            <path d="M209.5,256.239502 C224.051582,256.239502 245.839428,260.324569 274.864728,268.481354 C279.283861,269.587158 281.953522,270.619537 282.79516,271.680492 C283.030447,271.97709 283.318038,272.296527 283.620254,272.63158 C284.525025,273.634658 285.70209,274.795428 285.507402,275.914285 C285.31536,277.017939 285.394403,277.809399 285.457274,278.421877 C285.479417,278.637588 285.5,278.827692 285.5,279 C285.5,280.188166 283.271354,282.295561 281.680747,283.615191 C280.819868,284.329411 278.589312,285.2705 275.005861,286.467508 C247.537352,276.061616 226.367832,270.869751 211.5,270.869751 C196.631147,270.869751 174.125736,276.064891 143.985817,286.475241 C139.971227,285.308395 137.648932,284.519254 137.043392,284.070836 C134.620313,282.276485 133.5,280.55162 133.5,279 C133.5,277.634161 134.614602,274.421384 137.113588,271.70851 C138.033801,270.709536 140.393673,269.65144 144.151215,268.476874 C173.168551,260.323073 194.951082,256.239502 209.5,256.239502 Z" id="Rectangle" stroke="#000000"></path>
            <path d="M211.406273,363.872059 C214.01901,367.179944 220.933847,368.573103 227.945141,369.891662 C228.223081,369.943932 228.500996,369.996197 228.778069,370.048489 L228.778069,370.048489 L229.823197,370.246985 C236.235333,371.474783 242.386803,372.790215 244.311977,376.110078 C285.339507,446.859921 302.494882,529.715566 281.544343,612.437073 L281.544343,612.437073 L143.301754,612.437073 C117.196369,527.991974 136.451316,447.471769 178.531709,376.113233 C180.235043,373.224776 186.149757,371.768621 192.464541,370.417544 L193.272563,370.245535 C193.812302,370.131106 194.353764,370.017029 194.8946,369.902486 C201.95816,368.406504 208.924101,366.838434 211.406273,363.872059 Z" id="Triangle" stroke="#000000" transform="translate(210.966617, 487.968536) rotate(180.000000) translate(-210.966617, -487.968536) "></path>
            <path d="M108.498745,114.676 C117.207328,133.818709 122.78619,147.951943 125.230475,157.077275 C127.719436,166.369395 129.468589,179.74682 130.4823,197.207645 C122.867888,201.983808 115.134502,205.5 107.06063,205.5 C100.471412,205.5 93.664038,203.146749 86.5148466,197.248713 C87.6443242,179.265571 89.3840759,165.874668 91.7405207,157.077275 C94.3170973,147.458055 99.9044112,133.322895 108.498745,114.676 Z" id="Triangle" stroke="#000000" transform="translate(108.499928, 159.736328) rotate(180.000000) translate(-108.499928, -159.736328) "></path>
            <path d="M60.4987446,210.676 C69.2073283,229.818709 74.7861896,243.951943 77.2304748,253.077275 C79.7194356,262.369395 81.4685886,275.74682 82.4823005,293.207645 C74.8678876,297.983808 67.1345019,301.5 59.0606298,301.5 C52.4714118,301.5 45.664038,299.146749 38.5148466,293.248713 C39.6443242,275.265571 41.3840759,261.874668 43.7405207,253.077275 C46.3170973,243.458055 51.9044112,229.322895 60.4987446,210.676 Z" id="Triangle" stroke="#000000" transform="translate(60.499928, 255.736328) rotate(180.000000) translate(-60.499928, -255.736328) "></path>
            <path d="M358.498745,207.676 C367.207328,226.818709 372.78619,240.951943 375.230475,250.077275 C377.719436,259.369395 379.468589,272.74682 380.4823,290.207645 C372.867888,294.983808 365.134502,298.5 357.06063,298.5 C350.471412,298.5 343.664038,296.146749 336.514847,290.248713 C337.644324,272.265571 339.384076,258.874668 341.740521,250.077275 C344.317097,240.458055 349.904411,226.322895 358.498745,207.676 Z" id="Triangle" stroke="#000000" transform="translate(358.499928, 252.736328) rotate(180.000000) translate(-358.499928, -252.736328) "></path>
            <path d="M309.498745,114.676 C318.207328,133.818709 323.78619,147.951943 326.230475,157.077275 C328.719436,166.369395 330.468589,179.74682 331.4823,197.207645 C323.867888,201.983808 316.134502,205.5 308.06063,205.5 C301.471412,205.5 294.664038,203.146749 287.514847,197.248713 C288.644324,179.265571 290.384076,165.874668 292.740521,157.077275 C295.317097,147.458055 300.904411,133.322895 309.498745,114.676 Z" id="Triangle" stroke="#000000" transform="translate(309.499928, 159.736328) rotate(180.000000) translate(-309.499928, -159.736328) "></path>
            <path d="M167.517286,43.4031741 C179.269517,61.214401 186.718927,80.1340187 189.453158,100.266939 C175.635256,106.247706 161.407969,109.33048 145.508793,100.285416 C146.082034,82.6203615 155.289017,63.3041392 167.517286,43.4031741 Z" id="Triangle" stroke="#000000" transform="translate(167.500039, 74.472656) rotate(180.000000) translate(-167.500039, -74.472656) "></path>
            <path d="M156.602373,558.009737 C165.154472,572.404432 170.861544,587.531833 173.479982,603.456087 C162.660314,607.712585 151.462082,609.666869 139.168835,603.661869 C140.381717,589.295616 147.318744,573.896058 156.602373,558.009737 Z" id="Triangle" stroke="#000000" stroke-width="10" fill-opacity="0" transform="translate(156.500039, 580.472656) scale(1, -1) rotate(180.000000) translate(-156.500039, -580.472656) "></path>
            <path d="M268.602373,558.009737 C277.154472,572.404432 282.861544,587.531833 285.479982,603.456087 C274.660314,607.712585 263.462082,609.666869 251.168835,603.661869 C252.381717,589.295616 259.318744,573.896058 268.602373,558.009737 Z" id="Triangle" stroke="#000000" stroke-width="10" fill-opacity="0" transform="translate(268.500039, 580.472656) scale(1, -1) rotate(180.000000) translate(-268.500039, -580.472656) "></path>
            <path d="M253.517286,43.4031741 C265.269517,61.214401 272.718927,80.1340187 275.453158,100.266939 C261.635256,106.247706 247.407969,109.33048 231.508793,100.285416 C232.082034,82.6203615 241.289017,63.3041392 253.517286,43.4031741 Z" id="Triangle" stroke="#000000" transform="translate(253.500039, 74.472656) rotate(180.000000) translate(-253.500039, -74.472656) "></path>
            <path d="M111.602373,497.009737 C120.154472,511.404432 125.861544,526.531833 128.479982,542.456087 C117.660314,546.712585 106.462082,548.666869 94.1688351,542.661869 C95.3817168,528.295616 102.318744,512.896058 111.602373,497.009737 Z" id="Triangle" stroke="#000000" stroke-width="10" fill-opacity="0" transform="translate(111.500039, 519.472656) scale(1, -1) rotate(180.000000) translate(-111.500039, -519.472656) "></path>
            <path d="M313.602373,494.009737 C322.154472,508.404432 327.861544,523.531833 330.479982,539.456087 C319.660314,543.712585 308.462082,545.666869 296.168835,539.661869 C297.381717,525.295616 304.318744,509.896058 313.602373,494.009737 Z" id="Triangle" stroke="#000000" stroke-width="10" fill-opacity="0" transform="translate(313.500039, 516.472656) scale(1, -1) rotate(180.000000) translate(-313.500039, -516.472656) "></path>
            <path d="M82.6023728,426.009737 C91.1544716,440.404432 96.8615445,455.531833 99.4799822,471.456087 C88.660314,475.712585 77.4620816,477.666869 65.1688351,471.661869 C66.3817168,457.295616 73.318744,441.896058 82.6023728,426.009737 Z" id="Triangle" stroke="#000000" stroke-width="10" fill-opacity="0" transform="translate(82.500039, 448.472656) scale(1, -1) rotate(180.000000) translate(-82.500039, -448.472656) "></path>
            <path d="M339.602373,426.009737 C348.154472,440.404432 353.861544,455.531833 356.479982,471.456087 C345.660314,475.712585 334.462082,477.666869 322.168835,471.661869 C323.381717,457.295616 330.318744,441.896058 339.602373,426.009737 Z" id="Triangle" stroke="#000000" stroke-width="10" fill-opacity="0" transform="translate(339.500039, 448.472656) scale(1, -1) rotate(180.000000) translate(-339.500039, -448.472656) "></path>
        </g>
    </g>
</svg>
