<?xml version="1.0" encoding="UTF-8"?>
<svg width="102px" height="100px" viewBox="0 0 102 100" version="1.1" xmlns="http://www.w3.org/2000/svg" xmlns:xlink="http://www.w3.org/1999/xlink">
    <title>Group 11</title>
    <g id="Page-1" stroke="none" stroke-width="1" fill="none" fill-rule="evenodd" opacity="0.26">
        <g id="Homepage---Not-Logged-In_XL" transform="translate(-5.000000, -397.000000)" fill="#FFFFFF">
            <g id="Group-11" transform="translate(56.000000, 447.000000) rotate(-345.000000) translate(-56.000000, -447.000000) translate(14.000000, 407.000000)">
                <path d="M72.5311247,26.504112 C72.1505555,25.8530285 73.1615624,25.2670533 73.5421316,25.9143069 C73.6228584,26.0483535 73.7035851,26.1938899 73.7843119,26.3279365 C73.9688303,26.0560133 74.3455553,25.8989873 74.6607742,26.1977198 C74.7507909,26.2834139 74.8410163,26.3691512 74.9314041,26.4549506 L75.4753136,26.970644 C75.7478754,27.2290148 76.0210716,27.488285 76.2936596,27.7489653 L76.8376566,28.2723571 C80.4539888,31.7761868 83.8149354,35.5911961 83.9751076,40.9275281 C84.2403527,49.5945994 82.4067014,57.7063347 77.4708351,64.9142128 C68.4371234,78.1005701 47.1982906,82.0798397 32.4829508,79.0274067 C17.7983641,75.9826335 7.42305013,66.1780809 2.22962693,52.1338253 C-1.79133582,41.2607297 -1.22240419,30.2191183 11.0749761,26.0483535 C11.1172616,26.0330339 11.1441705,26.0636732 11.1826118,26.0560133 C11.2364297,26.0560133 11.2787152,26.0560133 11.332533,26.071333 C11.4440129,26.0904825 11.5362721,26.1211217 11.6054664,26.2015497 C11.6400636,26.2321889 11.651596,26.266658 11.678505,26.3049571 C11.7131022,26.3624056 11.7476993,26.4083645 11.7630759,26.4811326 C11.7938289,26.5807101 11.7784524,26.6726278 11.7438552,26.7798651 C11.7323228,26.8258239 11.7169463,26.8564631 11.6938815,26.8985921 C11.6708167,26.9368911 11.6823491,26.98285 11.6439078,27.021149 C2.74858483,35.6767306 5.05122029,49.5448106 17.8022083,53.0338526 C22.8841516,54.4202776 28.0429776,54.9947631 33.2863745,55.4160525 C39.5061812,55.9139399 45.6837023,56.5190647 51.9265737,56.0824557 C58.65765,55.6113776 66.9571323,54.8262474 72.6156956,50.7052714 C80.6288301,44.8774351 78.2398735,37.0312759 74.4050347,29.8300973 L74.1254241,29.3106909 C73.8905254,28.8788507 73.6511627,28.4495839 73.4092941,28.0234728 L73.1179742,27.5136916 L73.1179742,27.5136916 L72.8250004,27.0071635 C72.7271504,26.8388878 72.6291501,26.6711916 72.5311247,26.504112 Z M74.6031122,27.7564904 C78.3972711,34.4473316 82.5873757,43.6237801 75.7063782,49.7133264 C68.4371234,56.1360743 57.469813,57.3310042 48.1208824,57.3846228 C36.3770572,57.4497312 20.9197998,57.6871852 10.9365874,50.8584675 C2.51793687,45.1097826 3.55969682,35.0179872 9.09140369,28.1279911 C-3.14062637,34.0566815 0.814986114,49.1005419 6.92715701,59.0468009 C12.9855101,68.8896525 20.8582937,76.12434 32.7943256,77.905245 C48.0555321,80.1802076 69.4365979,77.1507541 77.8590925,62.290729 C81.4033828,56.0364968 83.6906417,48.1928548 82.8103354,40.9275281 C82.0991708,35.1022451 78.5856336,31.5519247 74.6031122,27.7564904 Z M27.8592281,5.44079253 C31.3804536,0.975125218 40.5333334,-0.82492936 46.5378686,0.350850971 C49.882264,1.00576445 52.0618872,2.53006598 52.665416,4.64800254 C53.6879553,8.20215286 52.4117033,10.8792553 49.1634112,11.9937572 C46.1188581,13.0240012 41.2099007,12.3805774 40.3641916,10.2817904 C40.0912581,9.6192171 39.9913107,8.33236957 42.3708288,7.23318731 L42.3708288,7.23318731 L43.1780967,8.96813353 C42.2862579,9.38176309 42.1478691,9.67283575 42.1478691,9.67666565 C42.4284908,10.1592335 45.8882102,11.1856476 48.7021153,10.1209344 C50.8202323,9.32431454 51.5313969,7.66213648 50.8202323,5.1688694 C50.2820538,3.29604665 47.6718877,2.52240618 46.1688318,2.22750362 C40.72554,1.16662039 32.3760839,2.81730873 29.3699722,6.62040277 C28.1129408,8.20981266 27.9514873,10.0405065 28.8817674,12.0588655 C30.7961454,16.1989911 38.2652951,15.3257731 44.2659862,14.6210709 C46.318753,14.3836169 48.2561959,14.1538227 49.7861607,14.1538227 L49.7861607,14.1538227 L49.8053813,14.1538227 C51.3699433,14.1538227 62.606343,15.1534275 63.5596879,19.132697 C64.1286196,21.4957474 60.9456777,23.1081367 59.9000736,23.6404933 C56.1289795,25.555445 49.244138,24.6286084 43.1742525,23.8166689 C40.1566084,23.414529 37.3119502,23.0545181 35.4014163,23.0928171 C30.3348495,23.257503 26.4599638,25.199264 26.3677046,26.1452501 C26.3446398,26.4363227 27.0904015,27.3746491 30.8461191,28.2210577 C34.840173,29.1172551 39.1725104,28.2708465 43.362615,27.455077 C46.3917915,26.861442 49.6170188,26.2907864 52.5539362,26.2831266 C60.9918073,26.3750443 66.4043461,28.8874609 69.1106155,33.9582529 C70.6482685,36.8460001 71.5939251,42.7746905 69.3527958,46.3862893 C68.1918678,48.2552822 66.34284,49.1974384 63.9940749,49.1629693 L63.9940749,49.1629693 L63.213716,49.1438198 L63.0714831,48.381669 C62.8100821,47.0029038 63.1291451,44.7815598 63.5020259,42.2078648 C64.0863341,38.1405074 64.8897578,32.5641681 62.8715882,31.0705058 C61.5876479,30.1245197 59.1235589,30.9479489 57.2783752,31.8020174 C56.4249777,32.1964974 55.9175522,32.6599157 55.736878,33.2267414 C55.302491,34.5365684 56.4672632,36.6430152 57.6935415,38.872019 C57.8503821,39.1561281 58.009988,39.4452612 58.1697313,39.7389289 L58.4091211,40.1827703 C60.3596146,43.8342519 62.1335846,48.1295221 58.9005992,52.1694434 L58.9005992,52.1694434 L58.1932788,53.0541511 L57.4321405,52.2077424 C55.7830076,50.361729 54.3145489,48.2437925 52.8922198,46.1871344 L52.8922198,46.1871344 L52.248098,45.2597108 C50.0907049,42.1649129 47.8102765,39.0683885 44.811853,36.9340879 C39.2686138,32.9969472 27.3095171,28.4010632 21.4856562,32.054791 C24.7954544,33.7859073 28.5127306,34.9578577 32.118527,36.0915091 C35.9319066,37.286439 39.8682984,38.5234977 43.3664592,40.4269597 C48.6867387,43.3338564 51.6890063,46.2292633 52.2925351,49.0442423 C52.607754,50.5149252 52.2656262,51.9243296 51.27384,53.2264967 C50.1705739,54.6742002 47.5181224,55.237196 45.0271245,55.237196 C43.1434995,55.237196 41.3521336,54.9154841 40.3949446,54.4137668 C38.3613985,53.3528836 36.9698224,50.9936631 35.5013638,48.5042259 C34.2827737,46.4437379 33.0257423,44.3104817 31.4727128,43.1730004 C25.6872931,38.9447871 17.2647985,37.0413251 10.2915419,38.2975335 L10.2915419,38.2975335 L10.3107626,38.3396624 C9.83793425,38.5349875 9.04604293,38.9524469 9.03835466,39.542252 C9.03451053,40.0707787 9.63803935,40.8712285 10.8066557,41.3767758 C11.6908062,41.763596 13.1515766,41.6142298 14.5700615,41.4610336 C15.8117164,41.3346468 17.0956567,41.1967703 18.1835462,41.407415 C21.1550607,41.9819005 29.7159441,45.2947669 29.5544906,50.3272599 L29.5544906,50.3272599 L29.5352699,50.9553641 L28.9548059,51.1851583 C27.5286327,51.7596438 25.8794998,52.0430566 24.2149903,52.0430566 C22.0084582,52.0430566 19.771173,51.5489991 17.9721189,50.5915232 C15.7156131,49.3851037 14.2702192,47.5620697 13.8050791,45.3100865 L13.8050791,45.3100865 L15.68486,44.9194364 C16.1269353,47.0412028 17.6684324,48.2552822 18.8793342,48.9025359 C21.3203585,50.204703 24.8646487,50.4881158 27.5709181,49.6455371 C26.902039,46.7271507 21.1012429,43.9236615 17.8183536,43.2878975 C17.0110858,43.1308715 15.8693784,43.2495985 14.7699564,43.3644956 C13.105447,43.5445011 11.3871197,43.7168467 10.033985,43.1347014 C8.25030747,42.3534011 7.10475594,40.9363369 7.11620207,39.5269324 C7.12397661,38.8375498 7.46994854,37.5966611 9.30359981,36.7234432 L9.30359981,36.7234432 L9.26131435,36.5204583 C16.9649562,34.8735998 26.1409008,36.8957888 32.610576,41.6333793 C34.4826686,42.9968249 35.8434916,45.3024267 37.1581849,47.5314304 C38.4844107,49.7834136 39.7375979,51.90901 41.2867834,52.7132897 C43.0281755,53.6362964 48.5867913,53.5941675 49.7438752,52.0698659 C50.3896895,51.2196274 50.6088051,50.3578991 50.4127543,49.4425522 C49.9476142,47.2633372 47.1144885,44.6590029 42.4438673,42.1121172 C39.1110043,40.2929131 35.2630275,39.0864935 31.5419071,37.9145431 C27.3748674,36.6047162 23.0655947,35.2527603 19.2714358,33.0122668 L19.2714358,33.0122668 L18.1835462,32.372673 L19.0946057,31.499455 C21.0089837,29.6572715 23.6229939,28.8721413 26.5060934,28.7840535 C25.2951916,28.1444596 24.3341584,27.2367725 24.4571707,25.9652446 C24.7454806,22.9357911 31.1190526,21.315742 35.3360661,21.1778654 C37.4234301,21.1357365 40.3295944,21.4995773 43.4279653,21.9170368 C48.9366074,22.660038 55.7906959,23.5753849 59.0274555,21.9323564 C61.1532609,20.8561536 61.7913869,19.9944253 61.6914395,19.5769658 C61.272429,17.8420196 53.7609938,16.0726043 49.8053813,16.0687744 L49.8053813,16.0687744 L49.7861607,16.0687744 C48.3676757,16.0687744 46.4840507,16.2909088 44.4889459,16.5245329 C44.1790127,16.5606177 43.8655066,16.5971486 43.5491858,16.6334474 L42.913016,16.7055347 C36.6248603,17.4073985 29.4435513,17.8446527 27.1365311,12.8593153 C25.8948763,10.1745531 26.1447449,7.60851784 27.8592281,5.44079253 Z M52.5347155,28.1980783 C49.709278,28.2593567 46.7992696,28.7342648 43.7316518,29.3355596 C41.2137449,29.8257872 38.6420201,30.3275046 36.0818278,30.4807007 C39.9528694,31.7981875 43.5394451,33.6824999 45.9266515,35.3791471 C49.4978507,37.918373 52.02729,41.5682709 54.4721584,45.0994418 C55.6715277,46.8267282 56.8132351,48.4774166 58.0587341,49.9902284 C59.8308793,46.7233208 57.8934364,43.2074696 56.0098114,39.7950257 C54.5759499,37.1906914 53.2189711,34.7318934 53.9070709,32.6292765 C54.2645752,31.5492437 55.1218168,30.6913454 56.4672632,30.0632412 C57.5128673,29.5768435 58.4739004,29.2244924 59.3465185,29.002358 C57.389855,28.4929809 55.1218168,28.2248876 52.5347155,28.1980783 Z M65.8200379,32.6062971 C66.4350991,35.3331883 65.8969206,39.0635141 65.4048716,42.4836178 C65.1396264,44.2951621 64.8897578,46.0301083 64.8936019,47.2058887 C66.1314127,47.0450327 67.0578486,46.4437379 67.7190394,45.3790248 C69.4834963,42.5257468 68.7300463,37.3285679 67.4115088,34.8544503 C66.9694336,34.0310211 66.4389433,33.2765301 65.8200379,32.6062971 Z M62.2373063,23.9530134 C67.3269379,23.2444813 71.8053524,27.5109936 73.7773925,31.7583565 C75.530317,35.5346412 76.0684955,40.7624593 72.3166221,44.1136247 L72.3166221,44.1136247 L71.5362632,43.2442366 C74.8153083,40.3181905 74.2963504,35.6457084 72.720256,32.2485841 C70.9212019,28.3765518 66.9463688,24.4700504 62.3949157,25.1058143 L62.3949157,25.1058143 Z M25.3117214,22.0326999 L25.3232538,23.1969905 C22.4247778,23.2276297 17.1467836,25.4911026 13.8984916,28.8116288 C12.2954882,30.4546574 11.4613115,32.1130055 11.4843763,33.6143276 L11.4843763,33.6143276 L10.3157599,33.637307 C10.2850069,31.8181029 11.2345076,29.8648522 13.0643148,27.9958594 C16.1895946,24.7978901 21.7981841,22.067169 25.3117214,22.0326999 L25.3117214,22.0326999 Z" id="Combined-Shape"></path>
            </g>
        </g>
    </g>
</svg>