<?xml version="1.0" encoding="UTF-8"?>
<svg width="98px" height="77px" viewBox="0 0 98 77" version="1.1" xmlns="http://www.w3.org/2000/svg" xmlns:xlink="http://www.w3.org/1999/xlink">
    <title>Group 12</title>
    <g id="Page-1" stroke="none" stroke-width="1" fill="none" fill-rule="evenodd" fill-opacity="0.26">
        <g id="Homepage---Not-Logged-In_XL" transform="translate(-1315.000000, -215.000000)" fill="#FFFFFF">
            <g id="Group-12" transform="translate(1315.000000, 215.000000)">
                <path d="M27.8377,3.23110996 C28.608086,2.80243937 38.5197594,-2.45112215 50.4920586,1.4069132 C57.1374207,3.54713719 61.7440783,7.68990994 66.6231896,12.0767433 C70.7381781,15.7783296 74.9909593,19.6050751 80.8346189,22.5650925 L80.8346189,22.5650925 L81.5548984,22.9311834 C94.0094719,29.236083 96.6118733,30.5565136 97.1035424,48.491841 C99.5806779,59.1522842 96.4584225,65.8107588 93.3894051,69.521732 C89.4341307,74.3059461 83.2397263,77 76.274936,77 C75.9054012,77 75.5327348,76.9906131 75.1569368,76.9749681 C72.3040033,76.8591958 69.6421005,76.3710745 67.0992004,75.6920853 L67.0992004,75.6920853 L66.807957,76.10824 C66.5448983,75.926759 66.3068929,75.6639245 66.0563609,75.4448957 C57.3722945,72.8760011 50.4325573,67.5786339 44.5732395,63.10106 L44.5732395,63.10106 L43.1107588,61.9871422 C39.5751255,59.3056043 31.7491313,57.6065668 24.1799324,55.970109 C22.1631496,55.5320515 20.1902099,55.0971229 18.2799032,54.6496784 L18.2799032,54.6496784 L18.0700826,54.7779667 C18.0450294,54.7372899 17.994923,54.6528074 17.9510799,54.5714539 C10.6449396,52.8442556 4.5789329,50.8761256 3.13837374,47.4905666 C0.270564936,40.7555101 0.0849539767,27.7423361 0.0757223119,25.3403855 L0.0756197014,24.9744089 L0.0881463028,24.9744089 C-0.948429962,15.7689426 7.49763103,9.76129632 7.59158054,9.69871667 L7.59158054,9.69871667 L9.16053736,8.44712369 L14.7630598,6.47899374 C17.7537859,5.42765564 20.3968988,4.93640539 22.723715,4.51086378 C24.7279712,4.13851487 26.4566422,3.82248764 27.8377,3.23110996 Z M1.64144488,29.7523651 C1.87631865,34.7305762 2.54649183,42.424744 4.46619349,46.9273498 C5.27102763,48.8172552 8.20851565,50.272232 12.110552,51.511309 C11.2931912,50.1940074 10.7138359,48.7139987 10.1564022,47.2715378 C9.86202704,46.5080661 9.39227949,45.0030256 8.90061038,43.4103735 C8.74959524,42.9252653 8.57858308,42.3755902 8.403782,41.8204547 L8.25340264,41.3446656 C7.80174907,39.9215581 7.35566288,38.5740096 7.19072929,38.3070031 L7.19072929,38.3070031 L7.7262415,37.975331 L7.69179335,37.1273768 C7.73176459,37.1253287 7.76963013,37.1234389 7.80579653,37.1226503 L7.87598427,37.1228208 C8.44401058,37.1411339 8.6153455,37.639961 10.2722732,42.9848319 C10.7639423,44.5524521 11.2211633,46.0324608 11.465432,46.6613862 C12.1825799,48.5200018 12.8872013,50.3441986 14.017727,51.7303378 L14.017727,51.7303378 L13.6982987,51.9900433 C14.7661915,52.2966836 15.8873223,52.590808 17.0460329,52.8755454 C15.2108858,49.3178923 11.725359,41.9522677 12.683644,40.0185565 C12.8778063,39.6305627 13.2316828,39.3833731 13.6575873,39.3426963 L13.6575873,39.3426963 L13.7922482,40.7726413 C13.8736711,40.7695123 13.9519624,40.7006747 13.9738839,40.6568689 C13.4981094,41.6595602 15.9167157,47.438979 17.8126287,51.2688485 L18.0676015,51.7783878 C18.3605412,52.3572783 18.6363204,52.8790876 18.88118,53.3167319 C19.8238068,53.5357607 20.7789602,53.7516605 21.7435085,53.9613023 C19.8801765,52.1433635 18.8467319,49.1457983 17.9135001,46.4173256 C17.4374892,45.0280574 16.9833999,43.7170138 16.4760726,42.7345133 L16.4760726,42.7345133 L17.7537859,42.074298 C18.3112197,43.147539 18.7778356,44.5117753 19.275768,45.9542362 C20.4188204,49.2834735 21.712192,53.0570264 24.3928847,53.9769472 L24.3928847,53.9769472 L24.2143806,54.5026162 C24.3051984,54.5213901 24.3960163,54.540164 24.4868342,54.5620669 C26.503617,55.0001245 28.5360581,55.441311 30.5121294,55.9075294 C29.8450879,55.3630864 29.1655198,54.7998696 28.5047416,54.199105 C25.9868947,51.9180768 21.3990269,46.0168159 21.6746121,42.06804 L21.6746121,42.06804 L23.1120397,42.1650385 C22.8990874,45.2001514 26.6727261,50.5976462 29.4692899,53.1352509 C30.9223756,54.4494235 32.4631476,55.6478238 33.794099,56.6710011 L33.794099,56.6710011 L33.7565192,56.7210648 C34.9997844,57.049608 36.1898115,57.396925 37.3172056,57.759887 C36.7629035,57.1997991 36.230523,56.5927765 35.6699576,55.8981424 C34.7179358,54.721645 33.9068384,53.2478943 33.1239258,51.8210783 C32.0967445,49.9436888 31.0319834,48.0005907 29.6979003,46.8647701 L29.6979003,46.8647701 L30.6311321,45.7696263 C32.1687725,47.0775409 33.2961666,49.1364114 34.3891126,51.1295732 C35.1407086,52.5000675 35.9173579,53.9206255 36.7879567,54.9938665 C38.0155637,56.511423 39.0114285,57.569019 40.4645142,58.4858109 L40.4645142,58.4858109 L40.251562,58.820612 C41.7234377,59.4307636 42.9980194,60.0972369 43.9782259,60.8450637 L43.9782259,60.8450637 L45.4469699,61.9589814 C48.4878024,64.2838154 51.8417999,66.8182911 55.5590689,69.0742875 C52.154965,64.4277486 48.4502226,56.4519723 47.8520774,54.55268 L47.8520774,54.55268 L49.2300036,54.1240094 C50.0473643,56.7273228 56.3764297,69.5561508 59.3859456,70.9860957 C59.5581864,71.0643203 59.6897157,71.0956101 59.7774019,71.0643203 L59.7774019,71.0643203 L59.9308528,71.4523141 C61.2430143,72.0937555 62.6021505,72.6726173 64.0082616,73.1920284 C61.0833001,69.1337381 59.3013911,63.0353514 59.4579736,59.5809547 L59.4579736,59.5809547 L60.8954011,59.6497924 C60.7231603,63.3764105 63.1220045,70.7482931 66.7234024,74.1213362 C68.455205,74.6219733 70.2778255,74.9661614 72.1536841,75.210222 C68.1576983,71.827792 64.058368,63.989691 64.6878297,60.779355 L64.6878297,60.779355 L66.1033356,61.0547055 C65.464479,64.2838154 71.4772476,74.5593937 75.1976482,75.3385103 L75.1976482,75.3385103 L75.1569368,75.5325072 C75.1788583,75.5325072 75.1976482,75.5387652 75.2195698,75.5387652 C82.1060689,75.8579214 88.4006861,73.2952848 92.2808009,68.6049401 C95.3623448,64.878322 96.7966407,60.0815919 96.5273188,54.5339061 C95.969885,56.8211922 95.0272582,58.6234861 93.5866991,59.8531762 C91.6106277,61.5365688 88.93933,62.1279465 85.8483911,62.1279465 C82.3785225,62.1279465 78.3825366,61.3801197 74.2612848,60.613519 C72.4167427,60.2724599 70.5346209,59.9220138 68.6368408,59.6247605 C59.3483658,58.1666547 55.925472,55.963851 51.5912679,53.1696697 C49.1642389,51.6083075 46.4177815,49.8404324 42.1305522,47.8629155 C38.5009695,46.1889099 33.5623569,44.6525795 28.3325008,43.0223797 C26.6284853,42.4919426 24.8926721,41.9511782 23.162258,41.3920275 L22.124955,41.0542663 C13.3184459,38.163446 4.84586881,34.7524791 1.64144488,29.7523651 Z M50.0536276,2.77740751 C38.469653,-0.958597526 28.6049544,4.44828413 28.5078732,4.50460582 L28.5078732,4.50460582 L28.4421086,4.53589564 C26.9044682,5.2023689 25.088111,5.53717002 22.983642,5.92516385 C20.7100638,6.34444749 18.1264523,6.82005282 15.2390707,7.83384313 L15.2390707,7.83384313 L9.75868258,9.76129632 L8.45904768,10.8407953 C8.03001158,11.1443066 -0.920245109,17.5023989 1.97026816,27.1615677 C3.67243756,32.8402406 13.1745884,36.6336766 23.0354648,39.8413779 L23.9192894,40.1271035 L23.9192894,40.1271035 L24.8038443,40.4099049 C26.1306306,40.8320176 27.4558736,41.2449612 28.7615369,41.6518854 C34.0352361,43.2914722 39.0176918,44.8403185 42.7380924,46.5550008 C47.1130079,48.5763235 49.9095717,50.3754884 52.3710489,51.9618825 C56.7240428,54.7654508 59.8713514,56.7961604 68.8591879,58.2010735 C70.7694947,58.5014558 72.6672748,58.8550308 74.5274751,59.1992189 C81.9557497,60.5853581 88.9769098,61.8901438 92.6503356,58.7611613 C94.8174377,56.9119327 95.8039075,53.5826954 95.6692466,48.5857105 C95.2057623,31.4514026 93.0198704,30.3437428 80.9035152,24.2140662 L80.9035152,24.2140662 L80.1832356,23.8479753 C74.1704669,20.8003464 69.8425261,16.9110212 65.6586413,13.1437263 C60.8985328,8.86640734 56.4046145,4.82376203 50.0536276,2.77740751 Z M69.32048,24.6242758 L70.2223953,27.7845481 C72.455262,35.6038752 70.3288714,46.8306642 70.2380536,47.3031405 L70.2380536,47.3031405 L69.6837515,50.1692885 L68.8413375,47.3751071 C66.8621345,40.7917281 68.7379931,28.3978286 68.819416,27.8721596 L68.819416,27.8721596 L69.32048,24.6242758 Z M55.7416441,14.017964 L56.8032736,19.0274649 C59.020482,29.4720083 56.9034864,44.500511 56.8126685,45.1388234 L56.8126685,45.1388234 L56.1675486,49.6445581 L55.1716838,45.201403 C54.5235745,42.3059565 54.2920851,38.5613294 54.2759241,34.816459 L54.2755868,34.0419332 C54.300317,26.6891962 55.1032857,19.5617031 55.1560255,19.1056895 L55.1560255,19.1056895 L55.7416441,14.017964 Z M43.8294725,8.07508768 L44.9098919,13.3223912 C47.1271004,24.0767039 45.0101047,39.558909 44.9192869,40.2128663 L44.9192869,40.2128663 L44.2616403,44.9313719 L43.2501172,40.275446 C42.6174195,37.3596515 42.3827057,33.6076331 42.3579127,29.8367431 L42.3557167,29.0565578 C42.3558294,28.9265714 42.3561762,28.7966296 42.3567496,28.6667659 L42.3628455,27.8887889 C42.4309192,21.8061779 42.9652101,16.0441512 43.1651399,14.0821457 L43.1887848,13.852588 C43.2141075,13.6094796 43.2312577,13.4539476 43.2375906,13.3974868 L43.2375906,13.3974868 L43.8294725,8.07508768 Z M69.6680932,33.1288501 C69.4394827,35.8322909 69.2703736,39.2303658 69.4739309,42.3030266 C69.7338579,39.7091002 69.9217569,36.3642179 69.6680932,33.1288501 Z M56.1049156,28.5270556 C55.9921762,30.9207272 55.9201482,33.5459434 55.967123,36.1085801 C56.0955206,33.7743592 56.1706802,31.1647878 56.1049156,28.5270556 Z M26.6761709,9.05571078 L27.5780862,12.215983 C29.8109529,20.0353102 27.6845623,31.2620992 27.5937445,31.7345755 L27.5937445,31.7345755 L27.0394424,34.6007234 L26.1970284,31.8065421 C24.2178254,25.2231631 26.093684,12.8292636 26.1751069,12.3035946 L26.1751069,12.3035946 L26.6761709,9.05571078 Z M44.1958756,23.4853262 C44.0956628,25.7288066 44.0361615,28.150639 44.0706096,30.5380526 C44.1770857,28.3446359 44.2397187,25.9290615 44.1958756,23.4853262 Z M27.0237841,17.5602851 C26.7951736,20.2637259 26.6260645,23.6618008 26.8296218,26.7344616 C27.0895488,24.1405351 27.2774478,20.7956529 27.0237841,17.5602851 Z" id="Combined-Shape"></path>
            </g>
        </g>
    </g>
</svg>