<svg width="420px" height="504px" viewBox="0 0 420 504" version="1.1" xmlns="http://www.w3.org/2000/svg" xmlns:xlink="http://www.w3.org/1999/xlink">
    <title>smiley_gater</title>
    <g id="Happy-Chaps-Allie" stroke="none" stroke-width="1" fill="none" fill-rule="evenodd">
        <g id="noun-alligator-1175763-1allihead" transform="translate(0.000000, 0.000000)" fill="#e3e6e8" fill-rule="nonzero">
            <path d="M381.332917,136.806518 C399.809917,65.6856182 357.250917,24.2466182 330.371917,11.3666182 C274.930917,-13.2743818 229.571917,8.00723821 209.411917,20.3275182 C189.809917,8.00753821 143.891917,-13.2744818 88.4519167,11.3666182 C62.1319167,23.6866182 19.0109167,65.6866182 37.4909167,136.806518 C17.8889167,153.607518 -16.8290833,198.408518 9.49091667,293.606518 C10.6120167,298.087518 20.6899167,334.485518 62.1319167,392.727518 C64.3702167,396.649518 81.7339167,424.649518 103.572917,459.926518 C106.931917,466.086518 127.092917,498.567518 179.174917,503.606518 L180.854917,503.606518 L238.534917,503.606518 L240.213917,503.606518 C292.291917,498.567518 312.451917,466.086518 315.815917,459.926518 C337.096917,424.645518 354.456917,396.645518 357.256917,392.727518 C399.256917,334.489518 408.776917,298.086518 409.897917,293.606518 C435.651917,198.403518 400.933917,153.606518 381.335917,136.806518 L381.332917,136.806518 Z M376.851917,285.206518 L376.851917,285.765518 C376.851917,286.323518 368.453917,318.804518 328.691917,373.687518 C328.691917,374.245518 328.133917,374.245518 328.133917,374.808518 C328.133917,375.366518 309.094917,405.046518 286.133917,443.128518 C286.133917,443.686518 285.574917,443.686518 285.574917,444.249518 C285.574917,444.249518 273.812917,466.089518 236.855917,470.569518 L181.410917,470.569518 C145.012917,466.643518 133.250917,445.366518 132.691917,444.245518 C132.691917,443.686518 132.133917,443.686518 132.133917,443.124518 C109.172917,405.046518 90.6926167,374.804518 90.1336167,374.804518 C90.1336167,374.245518 89.5750167,374.245518 89.5750167,373.683518 C49.8130167,318.242518 41.9730167,285.761518 41.4150167,285.761518 L41.4150167,285.202518 C14.5360167,186.643518 62.1340167,159.202518 63.8130167,158.642518 C71.0942167,154.720518 75.0120167,146.322518 72.2114167,138.482518 C62.1334167,109.361518 63.8130167,84.1627182 77.8130167,64.5607182 C87.8910167,49.4397182 101.890917,42.7207182 101.890917,42.7207182 C155.089917,19.2007182 195.968917,52.7987182 197.652917,54.4827182 C200.453917,57.2835182 204.371917,58.4046182 208.851917,58.4046182 L209.410917,58.4046182 C213.332917,58.4046182 217.250917,56.7249182 220.609917,54.4827182 C221.167917,53.9241182 262.609917,19.2017182 316.371917,42.7207182 C318.609917,43.8418182 370.133917,69.0407182 346.051917,139.040518 C343.250917,146.880518 347.172917,155.841518 354.449917,159.200518 C355.012917,158.646518 404.289917,184.966518 376.851917,285.200518 L376.851917,285.206518 Z M259.251917,267.847518 C258.693917,267.289518 238.533917,247.128518 209.971917,247.128518 L209.412917,247.128518 C180.853917,247.128518 160.131917,267.847518 160.131917,267.847518 C155.650917,272.328518 148.932917,272.328518 144.451917,267.847518 C139.970917,263.367518 139.970917,256.648518 144.451917,252.167518 C145.572917,251.046518 171.330917,224.726518 209.971917,224.726518 L210.529917,224.726518 C249.170917,224.726518 274.927917,251.046518 276.049917,252.167518 C280.530917,256.648518 279.971917,263.929518 275.491917,267.847518 C273.253917,270.085518 270.452917,271.207518 267.651917,271.207518 C264.292917,271.207518 261.491917,270.089518 259.253917,267.847518 L259.251917,267.847518 Z M296.212917,210.726518 C300.693917,215.207518 300.134917,222.488518 295.654917,226.406518 C291.173917,230.887518 283.892917,230.328518 279.974917,225.848518 C252.533917,197.289518 210.533917,197.848518 209.974917,197.848518 L208.853917,197.848518 C208.294917,197.848518 166.294917,196.726518 138.853917,225.848518 C136.614917,228.086518 133.814917,229.207518 131.013917,229.207518 C128.212917,229.207518 125.411917,228.086518 123.173917,225.848518 C118.693917,221.367518 118.693917,214.649518 122.615917,210.168518 C156.775917,173.770518 207.174917,175.449518 209.416917,175.449518 L209.974917,175.449518 C211.650917,175.449518 261.490917,174.327518 296.212917,210.726518 L296.212917,210.726518 Z M201.014917,386.566518 C201.014917,392.726518 195.974917,397.765518 189.814917,397.765518 C183.655917,397.765518 178.615917,392.726518 178.615917,386.566518 C178.615917,377.047518 171.334917,369.765518 161.814917,369.765518 C152.295917,369.765518 145.014917,377.046518 145.014917,386.566518 C145.014917,392.726518 139.974917,397.765518 133.814917,397.765518 C127.655917,397.765518 122.615917,392.726518 122.615917,386.566518 C122.615917,364.726518 139.974917,347.367518 161.814917,347.367518 C183.650917,347.367518 201.014917,364.726518 201.014917,386.566518 Z M173.014917,384.328518 L173.014917,386.566518 L173.014917,388.804518 C173.014917,389.363518 172.455917,390.484518 172.455917,391.043518 C172.455917,391.601518 171.896917,392.164518 171.334917,392.722518 C170.775917,393.281518 170.213917,393.844518 170.213917,394.402518 C169.092917,395.523518 167.974917,396.082518 166.853917,396.640518 C164.611917,397.207518 163.490917,397.769518 161.810917,397.769518 C159.010917,397.769518 156.209917,396.648518 153.971917,394.410518 C153.412917,393.851518 152.849917,393.289518 152.849917,392.730518 C152.291917,392.172518 152.291917,391.609518 151.728917,391.051518 C151.170917,390.492518 151.170917,389.929518 151.170917,388.812518 L151.170917,386.574518 L151.170917,384.336518 C151.170917,383.777518 151.728917,382.656518 151.728917,382.097518 C151.728917,381.539518 152.287917,380.976518 152.849917,380.418518 C153.408917,379.859518 153.408917,379.297518 153.971917,378.738518 C156.771917,375.937518 160.131917,374.816518 164.049917,375.937518 C164.607917,375.937518 165.170917,376.496518 166.287917,376.496518 C166.845917,377.054518 167.408917,377.054518 167.967917,377.617518 C168.525917,378.175518 169.088917,378.738518 169.646917,378.738518 C170.205917,379.296518 170.767917,379.859518 170.767917,380.418518 C171.326917,380.976518 171.326917,381.539518 171.888917,382.097518 C172.451917,382.648518 172.451917,383.769518 173.013917,384.328518 L173.014917,384.328518 Z M296.213917,386.566518 C296.213917,392.726518 291.174917,397.765518 285.014917,397.765518 C278.854917,397.765518 273.815917,392.726518 273.815917,386.566518 C273.815917,377.047518 266.534917,369.765518 257.014917,369.765518 C247.495917,369.765518 240.214917,377.046518 240.214917,386.566518 C240.214917,392.726518 235.174917,397.765518 229.015917,397.765518 C222.854917,397.765518 217.816917,392.726518 217.816917,386.566518 C217.816917,364.726518 235.174917,347.367518 257.014917,347.367518 C278.854917,347.367518 296.213917,364.726518 296.213917,386.566518 Z M259.256917,375.371518 C259.815917,375.371518 260.378917,375.929518 261.495917,375.929518 C262.053917,376.488518 262.616917,376.488518 263.174917,377.050518 C263.733917,377.609518 264.296917,378.172518 264.854917,378.172518 C265.413917,378.730518 265.975917,379.293518 265.975917,379.851518 C266.185542,380.061143 266.316557,380.27119 266.428079,380.481342 L266.642645,380.901694 C266.754448,381.111846 266.886167,381.321893 267.096917,381.531518 C267.651917,382.648518 267.651917,383.769518 268.214917,384.328518 L268.213917,384.328518 L268.213917,388.804518 C268.213917,389.363518 267.655917,390.484518 267.655917,391.043518 C267.655917,391.601518 267.096917,392.164518 266.534917,392.722518 L266.278761,392.980769 C265.816295,393.454631 265.413917,393.930364 265.413917,394.402518 C264.854917,394.961518 264.292917,395.523518 263.733917,395.523518 C263.174917,396.082518 262.612917,396.082518 262.053917,396.644518 C261.495917,396.644518 260.932917,397.203518 259.815917,397.203518 L257.577917,397.203518 C254.776917,397.203518 251.975917,396.082518 249.737917,393.844518 L248.057917,392.164518 L248.057917,392.164518 C247.499917,391.605518 247.499917,391.043518 246.936917,390.484518 C246.936917,389.926518 246.378917,389.363518 246.378917,388.246518 L246.378917,383.769518 C246.378917,383.211518 246.936917,382.089518 246.936917,381.531518 C247.146542,381.321893 247.277557,381.111846 247.389079,380.901694 L247.603645,380.481342 C247.715448,380.27119 247.847167,380.061143 248.057917,379.851518 C248.616917,379.293518 249.178917,378.730518 249.178917,378.172518 C249.737917,377.613518 250.299917,377.050518 250.858917,377.050518 C251.417917,376.492518 251.979917,376.492518 252.538917,375.929518 C253.096917,375.929518 253.659917,375.371518 254.776917,375.371518 C256.456917,375.371518 257.577917,374.812518 259.256917,375.371518 Z M150.999503,98 C172.728905,98 190,119.355173 190,146.222906 C190,153.800984 184.986517,160 178.857711,160 C172.728905,160 167.715423,153.800984 167.715423,146.222906 C167.715423,134.51256 160.471294,125.554189 150.999503,125.554189 C141.528706,125.554189 134.284577,134.51133 134.284577,146.222906 C134.284577,153.800984 129.2701,160 123.142289,160 C117.012488,160 112,153.800984 112,146.222906 C112,119.355173 129.2701,98 150.999503,98 Z M267.999503,98 C289.728905,98 307,119.355173 307,146.222906 C307,153.800984 301.986517,160 295.857711,160 C289.728905,160 284.715423,153.800984 284.715423,146.222906 C284.715423,134.51256 277.471294,125.554189 267.999503,125.554189 C258.528706,125.554189 251.284577,134.51133 251.284577,146.222906 C251.284577,153.800984 246.2701,160 240.142289,160 C234.012488,160 229,153.800984 229,146.222906 C229,119.355173 246.2701,98 267.999503,98 Z" id="Shape"></path>
        </g>
    </g>
</svg>
